<mxfile host="app.diagrams.net" modified="2021-06-10T04:24:32.236Z" agent="5.0 (Windows NT 10.0; Win64; x64) AppleWebKit/537.36 (KHTML, like Gecko) Chrome/91.0.4472.77 Safari/537.36" etag="Yznh0G08lR82E7OoJYdW" version="14.1.4" type="github">
  <diagram id="3jAC-QXx-4kMT80FHBbB" name="Page-1">
    <mxGraphModel dx="1552" dy="763" grid="1" gridSize="10" guides="1" tooltips="1" connect="1" arrows="1" fold="1" page="1" pageScale="1" pageWidth="1920" pageHeight="1200" math="0" shadow="0">
      <root>
        <mxCell id="0" />
        <mxCell id="1" parent="0" />
        <mxCell id="vrNj7zBSifDwBCKTAedq-1" value="" style="ellipse;whiteSpace=wrap;html=1;aspect=fixed;" vertex="1" parent="1">
          <mxGeometry x="420" y="130" width="120" height="120" as="geometry" />
        </mxCell>
        <mxCell id="vrNj7zBSifDwBCKTAedq-2" value="" style="ellipse;whiteSpace=wrap;html=1;aspect=fixed;" vertex="1" parent="1">
          <mxGeometry x="690" y="130" width="120" height="120" as="geometry" />
        </mxCell>
      </root>
    </mxGraphModel>
  </diagram>
</mxfile>
